<svg width="34" height="34" viewBox="0 0 34 34" fill="none" xmlns="http://www.w3.org/2000/svg">
<g clip-path="url(#clip0_58415_53)">
<path fill-rule="evenodd" clip-rule="evenodd" d="M16.825 0C7.52919 0 0 7.52919 0 16.825C0 24.2701 4.81616 30.5584 11.5041 32.7877C12.3453 32.9349 12.6608 32.4302 12.6608 31.9885C12.6608 31.5889 12.6398 30.264 12.6398 28.8549C8.4125 29.633 7.31888 27.8243 6.98238 26.8779C6.79309 26.3942 5.97288 24.901 5.25781 24.5014C4.66894 24.1859 3.82769 23.4078 5.23678 23.3867C6.56175 23.3657 7.50816 24.6066 7.82363 25.1113C9.33788 27.6561 11.7565 26.941 12.7239 26.4994C12.8711 25.4057 13.3128 24.6697 13.7965 24.249C10.0529 23.8284 6.14113 22.3772 6.14113 15.9417C6.14113 14.112 6.79309 12.5977 7.86569 11.42C7.69744 10.9993 7.10856 9.27478 8.03394 6.96134C8.03394 6.96134 9.44303 6.51969 12.6608 8.68591C14.0068 8.30734 15.4369 8.11806 16.8671 8.11806C18.2972 8.11806 19.7273 8.30734 21.0733 8.68591C24.2911 6.49866 25.7002 6.96134 25.7002 6.96134C26.6256 9.27478 26.0367 10.9993 25.8684 11.42C26.941 12.5977 27.593 14.0909 27.593 15.9417C27.593 22.3983 23.6602 23.8284 19.9166 24.249C20.5265 24.7748 21.0523 25.7843 21.0523 27.3617C21.0523 29.612 21.0313 31.4207 21.0313 31.9885C21.0313 32.4302 21.3467 32.956 22.188 32.7877C25.528 31.6601 28.4303 29.5134 30.4864 26.6499C32.5426 23.7864 33.649 20.3502 33.65 16.825C33.65 7.52919 26.1208 0 16.825 0Z" fill="#F8F8F8"/>
</g>
<defs>
<clipPath id="clip0_58415_53">
<rect width="33.65" height="33.65" fill="white"/>
</clipPath>
</defs>
</svg>
